<svg width="50" height="3" viewBox="0 0 50 3" fill="none" xmlns="http://www.w3.org/2000/svg">
<path d="M48.0055 2.19C48.412 2.27 48.7677 2.32 49.0726 2.34C49.4283 2.36 49.7332 2.42 49.9873 2.52C49.9873 2.62 49.9873 2.72 49.9873 2.82C50.0381 2.92 49.9365 2.94 49.6824 2.88C49.2251 2.88 48.971 2.86 48.9202 2.82C48.9202 2.8 48.8694 2.78 48.7677 2.76C48.6661 2.86 48.4883 2.9 48.2342 2.88C47.9801 2.88 47.6752 2.85 47.3195 2.79C47.1162 2.79 46.9384 2.8 46.7859 2.82C46.6843 2.86 46.5065 2.86 46.2524 2.82C46.0491 2.92 45.8713 2.94 45.7188 2.88C45.6172 2.82 45.4902 2.76 45.3377 2.7C45.2361 2.8 45.0836 2.86 44.8804 2.88C44.7279 2.9 44.6009 2.85 44.4993 2.73C44.0927 2.77 43.7624 2.74 43.5084 2.64C43.2035 2.72 42.8478 2.79 42.4413 2.85C42.0856 2.91 41.6282 2.93 41.0693 2.91C40.7135 2.85 40.3832 2.78 40.0784 2.7C39.8243 2.64 39.494 2.63 39.0875 2.67C38.6809 2.63 38.2744 2.63 37.8679 2.67C37.5122 2.69 37.1311 2.68 36.7246 2.64C36.3689 2.68 36.0131 2.71 35.6574 2.73C35.3017 2.75 34.9968 2.8 34.7428 2.88C34.3363 2.86 33.9805 2.84 33.6757 2.82C33.3708 2.82 33.0659 2.81 32.761 2.79C32.5577 2.83 32.3545 2.86 32.1512 2.88C31.9988 2.92 31.7955 2.95 31.5414 2.97C30.8808 2.95 30.4489 2.95 30.2456 2.97C30.0424 3.01 29.8137 3.01 29.5596 2.97C28.7974 2.83 28.213 2.76 27.8065 2.76C27.4508 2.76 27.1459 2.73 26.8918 2.67C26.2312 2.67 25.8501 2.65 25.7485 2.61C25.6469 2.57 25.5452 2.53 25.4436 2.49C24.9355 2.49 24.5544 2.47 24.3003 2.43C24.097 2.47 23.8683 2.51 23.6143 2.55C23.3602 2.57 23.1315 2.53 22.9283 2.43C22.5217 2.51 22.1406 2.59 21.7849 2.67C21.4292 2.73 20.9719 2.78 20.4129 2.82C19.7523 2.88 19.295 2.88 19.0409 2.82C18.8377 2.78 18.609 2.74 18.3549 2.7C18.2025 2.72 18.0246 2.74 17.8214 2.76C17.6181 2.78 17.4402 2.77 17.2878 2.73C16.4748 2.81 15.8396 2.85 15.3822 2.85C14.9757 2.87 14.62 2.9 14.3151 2.94C14.0102 2.9 13.6545 2.88 13.248 2.88C12.8923 2.88 12.6636 2.83 12.562 2.73C12.003 2.59 11.5965 2.57 11.3424 2.67C11.1392 2.77 10.8343 2.84 10.4278 2.88C9.76717 2.82 9.10657 2.82 8.44598 2.88C8.03946 2.72 7.73456 2.65 7.5313 2.67C7.37886 2.69 7.25182 2.68 7.15019 2.64C6.74367 2.66 6.43878 2.72 6.23552 2.82C6.08308 2.92 5.80359 2.96 5.39707 2.94C5.19381 2.96 2.00262 2.93 1.79936 2.85C1.64692 2.77 0.498498 2.68 0.346053 2.58C0.193608 2.46 0.564558 2.35 0.462928 2.25C0.361297 2.13 0.310482 2.04 0.310482 1.98C-0.350114 1.8 0.264748 1.63 0.163118 1.47C0.0614882 1.31 0.432438 1.15 0.279993 0.99C-0.177342 0.93 0.9101 0.89 0.554394 0.87C0.249504 0.85 0.468009 0.77 0.213933 0.63C0.213933 0.53 0.213933 0.44 0.213933 0.36C0.163118 0.26 0.264749 0.24 0.518824 0.3C0.97616 0.28 1.20483 0.29 1.20483 0.33C1.25564 0.35 1.33186 0.37 1.4335 0.39C1.53513 0.29 1.71298 0.25 1.96705 0.27C2.27194 0.27 2.57683 0.3 2.88172 0.36C3.08499 0.36 3.23743 0.35 3.33906 0.33C3.49151 0.29 3.69477 0.29 3.94884 0.33C4.55862 0.29 5.06677 0.29 5.47329 0.33C5.93063 0.41 6.18471 0.44 6.23552 0.42C6.33715 0.38 6.43878 0.35 6.54041 0.33C7.30264 0.37 7.78538 0.35 7.98864 0.27C8.24271 0.17 8.57301 0.14 8.97953 0.18C9.48769 0.24 9.94502 0.35 10.3515 0.51C10.6056 0.47 10.8597 0.42 11.1138 0.36C11.4187 0.3 11.7998 0.28 12.2571 0.3C12.4604 0.26 12.6382 0.23 12.7907 0.21C12.9431 0.17 13.1464 0.14 13.4004 0.12C13.5021 0.16 13.6291 0.17 13.7816 0.15C13.9848 0.11 14.1373 0.13 14.2389 0.21C14.4422 0.41 14.6454 0.46 14.8487 0.36C15.1027 0.26 15.3822 0.19 15.6871 0.15C16.1445 0.31 16.4239 0.38 16.5256 0.36C16.678 0.32 16.8559 0.28 17.0591 0.24C17.6689 0.28 18.1008 0.25 18.3549 0.15C18.609 0.05 18.9901 0 19.4983 0C19.9556 0.16 20.1843 0.25 20.1843 0.27C20.3875 0.25 20.5654 0.23 20.7178 0.21C20.8703 0.19 21.0227 0.19 21.1751 0.21C21.3784 0.25 21.5309 0.3 21.6325 0.36C21.7849 0.4 21.9374 0.44 22.0898 0.48C22.6996 0.38 23.1315 0.36 23.3856 0.42C23.8429 0.36 24.2495 0.28 24.6052 0.18C25.0117 0.08 25.5198 0.04 26.1296 0.06C26.3837 0.1 26.714 0.18 27.1205 0.3C27.3746 0.32 27.6033 0.34 27.8065 0.36C28.0606 0.38 28.3401 0.38 28.645 0.36C28.9499 0.32 29.2802 0.29 29.6359 0.27C29.9916 0.23 30.2965 0.24 30.5505 0.3C31.1603 0.4 31.7193 0.39 32.2274 0.27C32.7356 0.15 33.1675 0.18 33.5232 0.36C34.0822 0.38 34.5903 0.37 35.0477 0.33C35.505 0.27 35.9369 0.28 36.3434 0.36C36.6992 0.34 37.0549 0.32 37.4106 0.3C37.8171 0.28 38.1982 0.29 38.5539 0.33C39.3161 0.39 39.9005 0.41 40.307 0.39C40.7135 0.37 41.1201 0.37 41.5266 0.39C41.7807 0.35 42.0093 0.32 42.2126 0.3C42.4667 0.26 42.7207 0.26 42.9748 0.3C43.6862 0.34 44.0927 0.31 44.1944 0.21C44.296 0.11 44.5501 0.07 44.9566 0.09C45.4139 0.31 45.7696 0.53 46.0237 0.75C46.2778 0.95 46.4048 1.09 46.4048 1.17C47.1162 1.35 47.5228 1.53 47.6244 1.71C47.726 1.87 47.8531 2.03 48.0055 2.19Z" fill="white"/>
</svg>
