<svg width="88" height="155" viewBox="0 0 88 155" fill="none" xmlns="http://www.w3.org/2000/svg">
<path d="M44.0051 44H22.0051V22.06H0L6.10352e-05 44.19V66.33V88.14L0 110.29L6.10352e-05 132.43H22.0051V110H44.0051V88H66.0051V66.02H44.0051V44Z" fill="#DD191B"/>
<path d="M88 66H66V88H88V66Z" fill="black"/>
<path d="M66.0601 44H44V66.06H66.0601V44Z" fill="black"/>
<path d="M44.0601 22H22V44.06H44.0601V22Z" fill="black"/>
<path d="M22.0601 0H0V22.06H22.0601V0Z" fill="black"/>
<path d="M66 88H44V110H66V88Z" fill="black"/>
<path d="M44.0601 110H22V132.06H44.0601V110Z" fill="black"/>
<path d="M22.0601 132H0V154.06H22.0601V132Z" fill="black"/>
</svg>
