<svg width="1319" height="155" viewBox="0 0 1319 155" fill="none" xmlns="http://www.w3.org/2000/svg">
<path d="M88.7299 0.320007H66.6699V22.38H88.7299V0.320007Z" fill="black"/>
<path d="M66.6799 22.4H44.6199V44.46H66.6799V22.4Z" fill="black"/>
<path d="M44.86 44.47H22.8V66.53H44.86V44.47Z" fill="black"/>
<path d="M88.7299 132.45H66.6699V154.51H88.7299V132.45Z" fill="black"/>
<path d="M110.79 132.45H88.73V154.51H110.79V132.45Z" fill="black"/>
<path d="M132.86 132.45H110.8V154.51H132.86V132.45Z" fill="black"/>
<path d="M1319 132H133V154H1319V132Z" fill="black"/>
<path d="M110.79 0.269989H88.73V22.33H110.79V0.269989Z" fill="black"/>
<path d="M132.86 0.269989H110.8V22.33H132.86V0.269989Z" fill="black"/>
<path d="M154.92 0.269989H132.86V22.33H154.92V0.269989Z" fill="black"/>
<path d="M176.98 0.269989H154.92V22.33H176.98V0.269989Z" fill="black"/>
<path d="M199.05 0.269989H176.99V22.33H199.05V0.269989Z" fill="black"/>
<path d="M221.11 0.269989H199.05V22.33H221.11V0.269989Z" fill="black"/>
<path d="M243.17 0.269989H221.11V22.33H243.17V0.269989Z" fill="black"/>
<path d="M1319 0H243V22H1319V0Z" fill="black"/>
<path d="M66.6799 110.37H44.6199V132.43H66.6799V110.37Z" fill="black"/>
<path d="M44.86 88.3H22.8V110.36H44.86V88.3Z" fill="black"/>
<path d="M23.04 66.22H0.97998V88.28H23.04V66.22Z" fill="black"/>
<rect x="80" y="22" width="1239" height="110" fill="#DD191B"/>
</svg>
