<svg width="1456" height="243" viewBox="0 0 1456 243" fill="none" xmlns="http://www.w3.org/2000/svg">
<path d="M1411.76 88.46V66.4H1389.94V44.33L1368.13 44.32V22.25H750.38H706.25H88.5001V44.32L66.6901 44.33V66.4H44.8701V88.46H22.8101V154.37H44.8701V176.44H66.6901V198.52H88.5001V220.59H706.25H750.38H1368.13V198.52H1389.94V176.44H1411.76V154.37H1433.82V88.46H1411.76Z" fill="white"/>
<path d="M110.56 0.179993H88.5V22.24H110.56V0.179993Z" fill="black"/>
<path d="M88.4999 22.25H66.4399V44.31H88.4999V22.25Z" fill="black"/>
<path d="M66.6899 44.33H44.6299V66.39H66.6899V44.33Z" fill="black"/>
<path d="M44.8701 66.4H22.8101V88.46H44.8701V66.4Z" fill="black"/>
<path d="M22.81 88.46H0.75V110.52H22.81V88.46Z" fill="black"/>
<path d="M110.56 220.59H88.5V242.65H110.56V220.59Z" fill="black"/>
<path d="M132.62 220.59H110.56V242.65H132.62V220.59Z" fill="black"/>
<path d="M154.68 220.59H132.62V242.65H154.68V220.59Z" fill="black"/>
<path d="M176.75 220.59H154.69V242.65H176.75V220.59Z" fill="black"/>
<path d="M198.81 220.59H176.75V242.65H198.81V220.59Z" fill="black"/>
<path d="M220.87 220.59H198.81V242.65H220.87V220.59Z" fill="black"/>
<path d="M242.93 220.59H220.87V242.65H242.93V220.59Z" fill="black"/>
<path d="M265 220.59H242.94V242.65H265V220.59Z" fill="black"/>
<path d="M287.06 220.59H265V242.65H287.06V220.59Z" fill="black"/>
<path d="M309.12 220.59H287.06V242.65H309.12V220.59Z" fill="black"/>
<path d="M331.18 220.59H309.12V242.65H331.18V220.59Z" fill="black"/>
<path d="M353.25 220.59H331.19V242.65H353.25V220.59Z" fill="black"/>
<path d="M375.31 220.59H353.25V242.65H375.31V220.59Z" fill="black"/>
<path d="M397.37 220.59H375.31V242.65H397.37V220.59Z" fill="black"/>
<path d="M419.44 220.59H397.38V242.65H419.44V220.59Z" fill="black"/>
<path d="M441.5 220.59H419.44V242.65H441.5V220.59Z" fill="black"/>
<path d="M463.56 220.59H441.5V242.65H463.56V220.59Z" fill="black"/>
<path d="M485.62 220.59H463.56V242.65H485.62V220.59Z" fill="black"/>
<path d="M507.69 220.59H485.63V242.65H507.69V220.59Z" fill="black"/>
<path d="M529.75 220.59H507.69V242.65H529.75V220.59Z" fill="black"/>
<path d="M551.81 220.59H529.75V242.65H551.81V220.59Z" fill="black"/>
<path d="M573.87 220.59H551.81V242.65H573.87V220.59Z" fill="black"/>
<path d="M595.94 220.59H573.88V242.65H595.94V220.59Z" fill="black"/>
<path d="M618 220.59H595.94V242.65H618V220.59Z" fill="black"/>
<path d="M640.06 220.59H618V242.65H640.06V220.59Z" fill="black"/>
<path d="M662.13 220.59H640.07V242.65H662.13V220.59Z" fill="black"/>
<path d="M684.19 220.59H662.13V242.65H684.19V220.59Z" fill="black"/>
<path d="M706.25 220.59H684.19V242.65H706.25V220.59Z" fill="black"/>
<path d="M728.31 220.59H706.25V242.65H728.31V220.59Z" fill="black"/>
<path d="M750.38 220.59H728.32V242.65H750.38V220.59Z" fill="black"/>
<path d="M772.44 220.59H750.38V242.65H772.44V220.59Z" fill="black"/>
<path d="M794.5 220.59H772.44V242.65H794.5V220.59Z" fill="black"/>
<path d="M816.56 220.59H794.5V242.65H816.56V220.59Z" fill="black"/>
<path d="M838.63 220.59H816.57V242.65H838.63V220.59Z" fill="black"/>
<path d="M860.69 220.59H838.63V242.65H860.69V220.59Z" fill="black"/>
<path d="M882.75 220.59H860.69V242.65H882.75V220.59Z" fill="black"/>
<path d="M904.81 220.59H882.75V242.65H904.81V220.59Z" fill="black"/>
<path d="M926.88 220.59H904.82V242.65H926.88V220.59Z" fill="black"/>
<path d="M948.94 220.59H926.88V242.65H948.94V220.59Z" fill="black"/>
<path d="M971 220.59H948.94V242.65H971V220.59Z" fill="black"/>
<path d="M993.07 220.59H971.01V242.65H993.07V220.59Z" fill="black"/>
<path d="M1015.13 220.59H993.07V242.65H1015.13V220.59Z" fill="black"/>
<path d="M1037.19 220.59H1015.13V242.65H1037.19V220.59Z" fill="black"/>
<path d="M1059.25 220.59H1037.19V242.65H1059.25V220.59Z" fill="black"/>
<path d="M1081.32 220.59H1059.26V242.65H1081.32V220.59Z" fill="black"/>
<path d="M1103.38 220.59H1081.32V242.65H1103.38V220.59Z" fill="black"/>
<path d="M1125.44 220.59H1103.38V242.65H1125.44V220.59Z" fill="black"/>
<path d="M1147.5 220.59H1125.44V242.65H1147.5V220.59Z" fill="black"/>
<path d="M1169.57 220.59H1147.51V242.65H1169.57V220.59Z" fill="black"/>
<path d="M1191.63 220.59H1169.57V242.65H1191.63V220.59Z" fill="black"/>
<path d="M1213.69 220.59H1191.63V242.65H1213.69V220.59Z" fill="black"/>
<path d="M1235.76 220.59H1213.7V242.65H1235.76V220.59Z" fill="black"/>
<path d="M1257.82 220.59H1235.76V242.65H1257.82V220.59Z" fill="black"/>
<path d="M1279.88 220.59H1257.82V242.65H1279.88V220.59Z" fill="black"/>
<path d="M1301.94 220.59H1279.88V242.65H1301.94V220.59Z" fill="black"/>
<path d="M1324.01 220.59H1301.95V242.65H1324.01V220.59Z" fill="black"/>
<path d="M1346.07 220.59H1324.01V242.65H1346.07V220.59Z" fill="black"/>
<path d="M132.62 0.119995H110.56V22.18H132.62V0.119995Z" fill="black"/>
<path d="M154.68 0.119995H132.62V22.18H154.68V0.119995Z" fill="black"/>
<path d="M176.75 0.119995H154.69V22.18H176.75V0.119995Z" fill="black"/>
<path d="M198.81 0.119995H176.75V22.18H198.81V0.119995Z" fill="black"/>
<path d="M220.87 0.119995H198.81V22.18H220.87V0.119995Z" fill="black"/>
<path d="M242.93 0.119995H220.87V22.18H242.93V0.119995Z" fill="black"/>
<path d="M265 0.119995H242.94V22.18H265V0.119995Z" fill="black"/>
<path d="M287.06 0.119995H265V22.18H287.06V0.119995Z" fill="black"/>
<path d="M309.12 0.119995H287.06V22.18H309.12V0.119995Z" fill="black"/>
<path d="M331.18 0.119995H309.12V22.18H331.18V0.119995Z" fill="black"/>
<path d="M353.25 0.119995H331.19V22.18H353.25V0.119995Z" fill="black"/>
<path d="M375.31 0.119995H353.25V22.18H375.31V0.119995Z" fill="black"/>
<path d="M397.37 0.119995H375.31V22.18H397.37V0.119995Z" fill="black"/>
<path d="M419.44 0.119995H397.38V22.18H419.44V0.119995Z" fill="black"/>
<path d="M441.5 0.119995H419.44V22.18H441.5V0.119995Z" fill="black"/>
<path d="M463.56 0.119995H441.5V22.18H463.56V0.119995Z" fill="black"/>
<path d="M485.62 0.119995H463.56V22.18H485.62V0.119995Z" fill="black"/>
<path d="M507.69 0.119995H485.63V22.18H507.69V0.119995Z" fill="black"/>
<path d="M529.75 0.119995H507.69V22.18H529.75V0.119995Z" fill="black"/>
<path d="M551.81 0.119995H529.75V22.18H551.81V0.119995Z" fill="black"/>
<path d="M573.87 0.119995H551.81V22.18H573.87V0.119995Z" fill="black"/>
<path d="M595.94 0.119995H573.88V22.18H595.94V0.119995Z" fill="black"/>
<path d="M618 0.119995H595.94V22.18H618V0.119995Z" fill="black"/>
<path d="M640.06 0.119995H618V22.18H640.06V0.119995Z" fill="black"/>
<path d="M662.13 0.119995H640.07V22.18H662.13V0.119995Z" fill="black"/>
<path d="M684.19 0.119995H662.13V22.18H684.19V0.119995Z" fill="black"/>
<path d="M706.25 0.119995H684.19V22.18H706.25V0.119995Z" fill="black"/>
<path d="M728.31 0.119995H706.25V22.18H728.31V0.119995Z" fill="black"/>
<path d="M750.38 0.119995H728.32V22.18H750.38V0.119995Z" fill="black"/>
<path d="M772.44 0.119995H750.38V22.18H772.44V0.119995Z" fill="black"/>
<path d="M794.5 0.119995H772.44V22.18H794.5V0.119995Z" fill="black"/>
<path d="M816.56 0.119995H794.5V22.18H816.56V0.119995Z" fill="black"/>
<path d="M838.63 0.119995H816.57V22.18H838.63V0.119995Z" fill="black"/>
<path d="M860.69 0.119995H838.63V22.18H860.69V0.119995Z" fill="black"/>
<path d="M882.75 0.119995H860.69V22.18H882.75V0.119995Z" fill="black"/>
<path d="M904.81 0.119995H882.75V22.18H904.81V0.119995Z" fill="black"/>
<path d="M926.88 0.119995H904.82V22.18H926.88V0.119995Z" fill="black"/>
<path d="M948.94 0.119995H926.88V22.18H948.94V0.119995Z" fill="black"/>
<path d="M971 0.119995H948.94V22.18H971V0.119995Z" fill="black"/>
<path d="M993.07 0.119995H971.01V22.18H993.07V0.119995Z" fill="black"/>
<path d="M1015.13 0.119995H993.07V22.18H1015.13V0.119995Z" fill="black"/>
<path d="M1037.19 0.119995H1015.13V22.18H1037.19V0.119995Z" fill="black"/>
<path d="M1059.25 0.119995H1037.19V22.18H1059.25V0.119995Z" fill="black"/>
<path d="M1081.32 0.119995H1059.26V22.18H1081.32V0.119995Z" fill="black"/>
<path d="M1103.38 0.119995H1081.32V22.18H1103.38V0.119995Z" fill="black"/>
<path d="M1125.44 0.119995H1103.38V22.18H1125.44V0.119995Z" fill="black"/>
<path d="M1147.5 0.119995H1125.44V22.18H1147.5V0.119995Z" fill="black"/>
<path d="M1169.57 0.119995H1147.51V22.18H1169.57V0.119995Z" fill="black"/>
<path d="M1191.63 0.119995H1169.57V22.18H1191.63V0.119995Z" fill="black"/>
<path d="M1213.69 0.119995H1191.63V22.18H1213.69V0.119995Z" fill="black"/>
<path d="M1235.76 0.119995H1213.7V22.18H1235.76V0.119995Z" fill="black"/>
<path d="M1257.82 0.119995H1235.76V22.18H1257.82V0.119995Z" fill="black"/>
<path d="M1279.88 0.119995H1257.82V22.18H1279.88V0.119995Z" fill="black"/>
<path d="M1301.94 0.119995H1279.88V22.18H1301.94V0.119995Z" fill="black"/>
<path d="M1324.01 0.119995H1301.95V22.18H1324.01V0.119995Z" fill="black"/>
<path d="M1346.07 0.119995H1324.01V22.18H1346.07V0.119995Z" fill="black"/>
<path d="M88.4999 198.52H66.4399V220.58H88.4999V198.52Z" fill="black"/>
<path d="M66.6899 176.44H44.6299V198.5H66.6899V176.44Z" fill="black"/>
<path d="M44.8701 154.37H22.8101V176.43H44.8701V154.37Z" fill="black"/>
<path d="M22.81 132.43H0.75V154.49H22.81V132.43Z" fill="black"/>
<path d="M22.81 110.46H0.75V132.52H22.81V110.46Z" fill="black"/>
<path d="M1368.13 0.179993H1346.07V22.24H1368.13V0.179993Z" fill="black"/>
<path d="M1390.19 22.25H1368.13V44.31H1390.19V22.25Z" fill="black"/>
<path d="M1412 44.33H1389.94V66.39H1412V44.33Z" fill="black"/>
<path d="M1433.82 66.4H1411.76V88.46H1433.82V66.4Z" fill="black"/>
<path d="M1455.88 88.46H1433.82V110.52H1455.88V88.46Z" fill="black"/>
<path d="M1368.13 220.59H1346.07V242.65H1368.13V220.59Z" fill="black"/>
<path d="M1390.19 198.52H1368.13V220.58H1390.19V198.52Z" fill="black"/>
<path d="M1412 176.44H1389.94V198.5H1412V176.44Z" fill="black"/>
<path d="M1433.82 154.37H1411.76V176.43H1433.82V154.37Z" fill="black"/>
<path d="M1455.88 132.43H1433.82V154.49H1455.88V132.43Z" fill="black"/>
<path d="M1455.88 110.46H1433.82V132.52H1455.88V110.46Z" fill="black"/>
</svg>
