<svg width="331" height="287" viewBox="0 0 331 287" fill="none" xmlns="http://www.w3.org/2000/svg">
<path d="M308.88 110.3H308.86L308.88 110.31V132.37H286.82V154.44L264.76 154.46V176.52H242.7V198.58H220.63V220.66H198.57V242.71H176.51V264.77H154.43V242.71H132.37V220.66H110.31V198.58H88.2401V176.52H66.1801V154.46L44.1201 154.44V132.37H22.0601V110.31L22.0701 110.3H22.0601V44.12H44.1201V22.06H66.1901V0H132.38V22.06H154.43V44.12H176.5V22.06H198.56V0H264.75V22.06H286.82V44.12H308.88V110.3Z" fill="#DD191B"/>
<path d="M68.33 66.19H46.27V88.25H68.33V66.19Z" fill="white"/>
<path d="M90.3901 44.13H68.3301V66.19H90.3901V44.13Z" fill="white"/>
<path d="M88.2499 0H66.1899V22.06H88.2499V0Z" fill="black"/>
<path d="M66.1899 0H44.1299V22.06H66.1899V0Z" fill="black"/>
<path d="M110.31 0H88.25V22.06H110.31V0Z" fill="black"/>
<path d="M132.38 0H110.32V22.06H132.38V0Z" fill="black"/>
<path d="M154.44 22.06H132.38V44.12H154.44V22.06Z" fill="black"/>
<path d="M176.5 44.13H154.44V66.19H176.5V44.13Z" fill="black"/>
<path d="M44.1201 22.06H22.0601V44.12H44.1201V22.06Z" fill="black"/>
<path d="M22.06 44.13H0V66.19H22.06V44.13Z" fill="black"/>
<path d="M22.06 66.19H0V88.25H22.06V66.19Z" fill="black"/>
<path d="M22.06 88.25H0V110.31H22.06V88.25Z" fill="black"/>
<path d="M22.06 110.32H0V132.38H22.06V110.32Z" fill="black"/>
<path d="M66.1801 154.46H44.1201V176.52H66.1801V154.46Z" fill="black"/>
<path d="M44.1201 132.38H22.0601V154.44H44.1201V132.38Z" fill="black"/>
<path d="M88.2399 176.53H66.1799V198.59H88.2399V176.53Z" fill="black"/>
<path d="M110.31 198.59H88.25V220.65H110.31V198.59Z" fill="black"/>
<path d="M132.37 220.65H110.31V242.71H132.37V220.65Z" fill="black"/>
<path d="M154.43 242.71H132.37V264.77H154.43V242.71Z" fill="black"/>
<path d="M176.49 264.78H154.43V286.84H176.49V264.78Z" fill="black"/>
<path d="M264.75 0H242.69V22.06H264.75V0Z" fill="black"/>
<path d="M286.82 0H264.76V22.06H286.82V0Z" fill="black"/>
<path d="M242.69 0H220.63V22.06H242.69V0Z" fill="black"/>
<path d="M220.63 0H198.57V22.06H220.63V0Z" fill="black"/>
<path d="M198.56 22.06H176.5V44.12H198.56V22.06Z" fill="black"/>
<path d="M308.88 22.06H286.82V44.12H308.88V22.06Z" fill="black"/>
<path d="M330.94 44.13H308.88V66.19H330.94V44.13Z" fill="black"/>
<path d="M330.94 66.19H308.88V88.25H330.94V66.19Z" fill="black"/>
<path d="M330.94 88.25H308.88V110.31H330.94V88.25Z" fill="black"/>
<path d="M330.94 110.32H308.88V132.38H330.94V110.32Z" fill="black"/>
<path d="M286.82 154.46H264.76V176.52H286.82V154.46Z" fill="black"/>
<path d="M308.88 132.38H286.82V154.44H308.88V132.38Z" fill="black"/>
<path d="M264.76 176.53H242.7V198.59H264.76V176.53Z" fill="black"/>
<path d="M242.7 198.59H220.64V220.65H242.7V198.59Z" fill="black"/>
<path d="M220.63 220.65H198.57V242.71H220.63V220.65Z" fill="black"/>
<path d="M198.57 242.71H176.51V264.77H198.57V242.71Z" fill="black"/>
</svg>
